<svg fill="none" height="24" viewBox="0 0 24 24" width="24" xmlns="http://www.w3.org/2000/svg"><g fill="#212529"><path d="m16.2426 6.34311-9.89951 9.89949c-.39052.3905-.39052 1.0237 0 1.4142.39053.3905 1.02369.3905 1.41422 0l9.89949-9.89948c.3905-.39053.3905-1.02369 0-1.41421-.3905-.39053-1.0237-.39053-1.4142 0z"/><path d="m17.6568 16.2426-9.89946-9.89951c-.39053-.39052-1.02369-.39052-1.41421 0-.39053.39053-.39053 1.02369 0 1.41422l9.89947 9.89949c.3905.3905 1.0237.3905 1.4142 0 .3906-.3905.3906-1.0237 0-1.4142z"/></g></svg>