<svg viewBox="0 0 50 54" xmlns="http://www.w3.org/2000/svg"><path d="m36 12.19a3.2 3.2 0 0 0 -3.19-3.19h-9.81v3h6a1 1 0 0 0 1-1v-.5a.5.5 0 0 1 .5-.5h2.31a2.19 2.19 0 0 1 2.19 2.19v35.62a2.19 2.19 0 0 1 -2.19 2.19h-10.37a4 4 0 0 1 -.83 1h11.2a3.2 3.2 0 0 0 3.19-3.19zm-9.75-1.47h-2a.25.25 0 0 1 0-.5h2a.25.25 0 0 1 0 .5zm1.08.08a.33.33 0 1 1 .33-.33.33.33 0 0 1 -.33.33zm19.67.2h-10v5h12v30h-12v2a4 4 0 0 1 -1.38 3h11.38a3 3 0 0 0 3-3v-34a3 3 0 0 0 -3-3zm-4.25 2.75h-4.5a.25.25 0 0 1 0-.5h4.5a.25.25 0 0 1 0 .5zm-2.25 36.5a1.75 1.75 0 1 1 1.75-1.75 1.75 1.75 0 0 1 -1.75 1.75zm-18.5-42.25a3 3 0 0 0 -3-3h-16a3 3 0 0 0 -3 3v40a3 3 0 0 0 3 3h16a3 3 0 0 0 3-3zm-8.67-1.85a.33.33 0 1 1 -.33.33.33.33 0 0 1 .33-.33zm-3.08.08h2a.25.25 0 0 1 0 .5h-2a.25.25 0 0 1 0-.5zm10.75 41.77a2 2 0 0 1 -2 2h-16a2 2 0 0 1 -2-2v-40a2 2 0 0 1 2-2h2.5a.5.5 0 0 1 .5.5v.5a1 1 0 0 0 1 1h8a1 1 0 0 0 1-1v-.5a.5.5 0 0 1 .5-.5h2.5a2 2 0 0 1 2 2zm19.5-.62a1.12 1.12 0 1 0 1.12 1.13 1.13 1.13 0 0 0 -1.12-1.13z"/></svg>