<svg enable-background="new 0 0 70 54" height="54" viewBox="0 0 70 54" width="70" xmlns="http://www.w3.org/2000/svg"><path d="m42 49v-20.5c0-.96-.52-1.5-1.5-1.5h-35c-.98 0-1.5.5-1.5 1.5v20.5h-4c.05.09.13.32.21.32 0 0 2.07 1.25 4.64 1.42 2.57.18 5.14.27 5.15.26h13 13s2.36-.08 4.93-.25 4.64-1.42 4.64-1.42c.08 0 .38-.23.44-.32h-4.01zm-36-20h34v20h-34zm46.95 22c.02-.01.03-.01.04-.02.14-.04.24-.17.24-.32 0-.19-.15-.34-.35-.34-.03 0-.04 0-.07 0-1.36.09-2.63-.82-2.93-2.19l-.88-4.13h19.47c.7 0 1.53-.83 1.53-1.53v-29.94c0-.7-.83-1.53-1.53-1.53h-44.94c-.7 0-1.53.83-1.53 1.53l.02 13.47h1.98v-13h44v25h-25v6 4h4v1c-.04 1.54-3 2-3 2zm-6-9.17c-.03.06-.06.12-.09.17s-.07.1-.1.14-.06.07-.08.08c-.04.03-.07.05-.11.07-.03.02-.07.03-.11.03-.02 0-.06-.01-.09-.02-.04-.01-.07-.02-.11-.03s-.08-.02-.11-.04c-.04-.01-.07-.01-.1-.01s-.07 0-.11.02c-.04.01-.08.02-.12.04-.04.01-.08.02-.11.04-.03.01-.06.02-.08.02-.03 0-.06-.01-.09-.02s-.06-.03-.09-.05-.06-.06-.1-.1-.07-.09-.12-.15c-.04-.06-.07-.12-.11-.19-.03-.07-.06-.14-.08-.22-.02-.07-.04-.15-.05-.22-.01-.08-.02-.15-.02-.22 0-.11.02-.21.05-.3s.08-.17.13-.24c.06-.07.12-.12.2-.16s.16-.06.25-.06c.07 0 .14.02.23.06s.15.06.18.06c.01 0 .03-.01.06-.02s.08-.03.14-.05.1-.03.14-.04.07-.01.11-.01c.1 0 .19.02.28.07s.16.11.21.19c-.09.06-.16.13-.21.21-.04.08-.06.17-.06.28s.03.21.09.31c.06.09.14.16.25.21-.02.02-.05.09-.07.15zm-.95-1.52c0-.06.01-.12.04-.19.03-.06.06-.12.11-.17.04-.05.1-.09.16-.12s.13-.05.19-.05v.03.03c0 .06-.01.13-.04.2-.03.06-.06.12-.11.17-.04.05-.09.09-.15.12s-.11.05-.17.05c-.02 0-.04 0-.04-.01.01-.03.01-.05.01-.06z"/></svg>